<?xml version="1.0" standalone="no"?>
<!DOCTYPE svg PUBLIC "-//W3C//DTD SVG 20010904//EN"
 "http://www.w3.org/TR/2001/REC-SVG-20010904/DTD/svg10.dtd">
<svg version="1.0" xmlns="http://www.w3.org/2000/svg"
 width="1024.000000pt" height="1024.000000pt" viewBox="0 0 1024.000000 1024.000000"
 preserveAspectRatio="xMidYMid meet">
<metadata>
Created by potrace 1.14, written by Peter Selinger 2001-2017
</metadata>
<g transform="translate(0.000000,1024.000000) scale(0.100000,-0.100000)"
fill="#000000" stroke="none">
<path d="M5225 9298 c-30 -16 -45 -39 -45 -68 0 -32 20 -52 73 -74 27 -11 38
-21 35 -33 -4 -23 -41 -28 -58 -8 -17 20 -49 19 -57 -2 -10 -25 49 -73 91 -73
44 0 84 32 92 76 8 43 -12 68 -75 96 -33 14 -41 22 -33 30 9 9 18 8 36 -2 14
-7 32 -10 40 -7 26 10 19 45 -14 62 -34 18 -57 19 -85 3z"/>
<path d="M5477 9303 c-3 -5 -8 -45 -12 -91 -8 -96 3 -135 46 -157 45 -24 94
-19 129 13 27 24 32 37 41 114 13 97 9 118 -20 118 -27 0 -41 -29 -41 -82 0
-24 -5 -60 -11 -80 -8 -30 -15 -38 -34 -38 -46 0 -54 21 -48 120 l6 90 -26 0
c-14 0 -28 -3 -30 -7z"/>
<path d="M5782 9268 c-11 -15 -35 -226 -26 -239 3 -5 16 -9 28 -9 19 0 25 7
30 36 6 29 11 35 28 32 15 -2 24 -15 32 -43 9 -32 17 -41 37 -43 33 -4 42 16
27 59 -9 25 -7 38 6 65 37 78 8 127 -83 144 -67 13 -67 13 -79 -2z m116 -82
c5 -22 -13 -36 -45 -36 -19 0 -23 5 -23 31 0 28 2 30 32 27 23 -2 34 -9 36
-22z"/>
<path d="M4605 9245 c-48 -48 -26 -105 49 -126 44 -12 53 -49 12 -49 -14 0
-28 5 -31 10 -10 16 -45 12 -52 -7 -10 -25 40 -63 83 -63 71 0 122 91 76 133
-10 9 -36 23 -57 30 -41 14 -59 37 -29 37 9 0 22 -7 29 -17 16 -21 45 -10 45
17 0 56 -82 79 -125 35z"/>
<path d="M6056 9231 c-8 -12 28 -196 45 -234 7 -15 19 -27 28 -27 19 0 151
176 151 201 0 22 -16 33 -34 22 -7 -4 -33 -32 -57 -62 -48 -62 -47 -63 -71 44
-11 49 -17 61 -35 63 -11 2 -24 -1 -27 -7z"/>
<path d="M4354 9220 c-26 -10 -54 -48 -54 -71 0 -30 37 -64 82 -74 32 -8 43
-16 43 -30 0 -21 -21 -24 -77 -10 -39 10 -48 -18 -18 -51 32 -33 97 -34 133 0
66 61 36 129 -65 150 -16 4 -28 13 -28 21 0 18 31 20 48 3 10 -9 15 -9 27 3
20 20 11 43 -21 58 -29 13 -41 13 -70 1z"/>
<path d="M6356 9161 c-6 -10 27 -223 39 -253 12 -29 29 -21 86 40 78 81 112
129 105 147 -10 27 -36 16 -89 -40 -28 -30 -54 -55 -58 -55 -4 0 -10 30 -14
68 -4 37 -11 75 -16 85 -10 18 -44 23 -53 8z"/>
<path d="M4075 9138 c-13 -37 -46 -241 -41 -254 14 -37 66 -3 66 44 0 14 10
22 40 30 34 8 41 7 57 -10 18 -20 64 -21 70 -2 5 16 -146 198 -168 202 -11 2
-21 -3 -24 -10z m65 -108 c9 -17 8 -20 -10 -20 -13 0 -20 7 -20 20 0 11 4 20
10 20 5 0 14 -9 20 -20z"/>
<path d="M3780 9051 c-36 -15 -65 -32 -65 -37 0 -24 78 -234 86 -234 6 0 46
14 90 31 68 27 79 35 79 56 0 34 -26 39 -76 14 -55 -26 -60 -26 -67 -1 -4 16
4 24 39 39 48 22 49 23 34 51 -10 19 -11 19 -54 0 -24 -10 -47 -16 -50 -13
-17 17 -1 36 44 55 41 17 50 25 48 42 -4 30 -33 29 -108 -3z"/>
<path d="M6656 8956 c-51 -111 -54 -139 -18 -144 18 -3 25 3 34 28 8 26 14 31
32 25 84 -24 119 -14 142 42 24 56 0 102 -71 134 -22 10 -47 19 -56 19 -10 0
-32 -35 -63 -104z m118 18 c21 -21 20 -41 -3 -54 -40 -21 -63 8 -41 51 13 23
24 24 44 3z"/>
<path d="M3499 8931 c-34 -35 -36 -59 -8 -95 16 -21 29 -26 64 -26 54 0 85
-24 62 -48 -12 -11 -22 -12 -45 -4 -23 8 -35 7 -49 -3 -17 -13 -17 -14 1 -34
28 -31 95 -29 130 4 35 32 36 86 1 120 -18 19 -35 25 -69 25 -49 0 -64 11 -41
30 12 10 18 10 30 0 14 -11 55 -5 55 8 0 4 -7 18 -16 30 -23 33 -78 30 -115
-7z"/>
<path d="M6992 8928 c-5 -7 -35 -55 -66 -105 -48 -78 -55 -96 -46 -113 16 -30
46 -25 60 10 14 34 18 35 56 15 61 -31 116 -10 133 51 17 60 -3 93 -81 134
-44 24 -43 23 -56 8z m73 -113 c0 -25 -4 -30 -24 -30 -28 0 -47 25 -38 49 5
12 16 16 34 14 24 -3 28 -8 28 -33z"/>
<path d="M3261 8821 c-36 -21 -66 -42 -68 -47 -5 -14 106 -224 118 -224 5 0
43 19 84 42 58 33 75 47 73 62 -5 29 -36 45 -51 25 -7 -8 -27 -24 -45 -35 -29
-16 -34 -17 -42 -4 -15 24 -13 28 30 52 41 24 47 43 19 61 -12 8 -24 5 -47
-11 -37 -27 -39 -27 -52 -2 -9 17 -5 22 40 45 51 26 60 41 38 63 -17 17 -25
15 -97 -27z"/>
<path d="M7224 8733 c-90 -137 -88 -131 -74 -148 13 -15 50 -21 50 -7 0 4 7
15 14 25 13 17 16 17 45 3 16 -9 46 -16 66 -16 70 0 110 80 69 139 -15 21 -99
81 -114 81 -3 0 -28 -35 -56 -77z m123 -39 c9 -24 -21 -48 -51 -40 -30 7 -34
31 -10 57 13 14 21 16 36 8 10 -6 22 -17 25 -25z"/>
<path d="M4955 8789 c-783 -66 -1542 -413 -2106 -961 -398 -387 -662 -783
-862 -1293 -43 -110 -107 -298 -132 -391 -2 -6 -42 -14 -95 -17 -104 -8 -157
-27 -236 -87 -61 -46 -114 -123 -146 -211 l-23 -64 1 -670 c0 -756 -4 -709 80
-837 48 -71 111 -124 191 -160 40 -18 74 -22 198 -27 l150 -6 80 -160 c296
-592 631 -991 1150 -1372 362 -265 867 -477 1370 -577 294 -58 659 -80 962
-57 564 44 1120 220 1598 508 370 224 662 488 942 854 123 159 246 361 363
594 l105 210 170 5 170 5 77 37 c119 57 199 149 238 277 19 60 20 95 20 710 0
704 -1 714 -57 811 -43 72 -116 138 -199 177 -70 33 -84 36 -194 41 l-119 5
-15 51 c-8 28 -22 78 -31 111 -27 94 -112 317 -177 465 -217 493 -571 951
-993 1286 -517 411 -1088 647 -1760 730 -155 19 -565 26 -720 13z m720 -164
c474 -57 950 -224 1353 -476 210 -130 387 -273 578 -463 182 -183 278 -300
428 -524 82 -123 241 -430 311 -600 61 -150 147 -411 139 -424 -4 -7 -135 -9
-388 -8 -209 2 -449 2 -533 1 l-151 -1 -84 -71 c-45 -39 -87 -75 -91 -79 -4
-4 356 -7 800 -7 l808 0 53 -23 c60 -26 115 -82 146 -149 21 -46 21 -53 21
-706 l0 -660 -23 -42 c-35 -66 -79 -110 -140 -140 l-57 -28 -806 -3 -806 -3 4
-42 c4 -37 1 -47 -24 -74 -33 -35 -85 -53 -155 -53 -58 0 -95 13 -130 48 l-28
26 0 -26 c0 -40 59 -119 109 -145 l44 -23 624 0 623 0 -69 -137 c-187 -373
-509 -765 -841 -1024 -364 -283 -694 -451 -1170 -593 -330 -99 -566 -131 -965
-131 -253 0 -309 3 -439 23 -477 75 -818 186 -1209 397 -190 102 -297 173
-465 308 -359 288 -644 631 -842 1011 -33 64 -60 122 -60 131 0 13 69 15 590
15 511 0 596 2 628 16 64 26 122 95 122 144 0 20 -1 20 -34 -5 -41 -31 -86
-40 -161 -30 -45 5 -65 14 -95 41 -42 38 -56 74 -40 104 10 19 1 20 -757 22
l-768 3 -50 27 c-63 33 -118 90 -144 148 -20 44 -21 63 -21 696 0 724 -2 703
67 784 21 24 60 53 87 66 l51 24 778 0 c427 0 777 1 777 3 0 7 -43 114 -57
140 l-15 30 -584 -5 c-322 -3 -586 -2 -588 1 -7 11 65 235 121 376 312 788
859 1392 1608 1775 366 187 790 311 1195 350 135 12 571 4 725 -15z"/>
<path d="M5233 8373 c-18 -2 -33 -8 -33 -13 0 -6 17 -25 38 -44 l37 -35 0
-178 c-1 -212 -6 -242 -46 -281 -18 -18 -29 -38 -27 -49 3 -16 19 -19 137 -26
73 -5 139 -6 147 -3 11 4 9 13 -9 43 -19 34 -22 54 -25 178 -4 164 -8 166 93
-42 33 -68 64 -123 69 -123 4 0 60 50 123 111 64 60 117 108 119 106 7 -7 -67
-212 -84 -232 -9 -11 -30 -28 -46 -38 -24 -16 -26 -21 -15 -32 19 -19 287 -83
298 -72 6 6 1 22 -10 41 -27 45 -24 80 25 278 47 190 67 231 122 254 19 8 34
18 34 22 0 4 -45 22 -100 40 l-101 34 -122 -80 c-67 -43 -137 -87 -156 -96
-32 -17 -34 -17 -56 4 -12 11 -62 70 -111 130 l-89 110 -90 -2 c-49 -1 -105
-3 -122 -5z"/>
<path d="M4655 8329 c-115 -25 -285 -78 -285 -89 0 -5 17 -17 38 -27 50 -24
73 -75 118 -253 45 -182 48 -239 15 -274 -42 -44 -17 -49 105 -21 163 39 184
45 184 55 0 6 -17 26 -38 45 -46 41 -93 165 -64 165 20 0 163 -137 168 -160
10 -46 14 -51 31 -46 10 3 62 10 117 16 54 6 102 13 107 16 21 13 5 35 -56 79
-57 40 -145 134 -145 153 0 4 16 20 36 36 74 59 94 138 54 216 -52 101 -185
132 -385 89z m187 -156 c23 -20 23 -55 1 -75 -17 -14 -105 -48 -125 -48 -9 0
-21 27 -32 73 -5 23 -2 30 26 47 40 24 105 26 130 3z"/>
<path d="M4208 8215 c-3 -3 -90 -45 -194 -94 -220 -103 -330 -162 -326 -176 1
-6 14 -14 30 -19 58 -19 83 -47 138 -161 58 -120 104 -244 104 -280 0 -12 -7
-30 -15 -41 -37 -49 3 -50 103 -3 100 47 278 121 337 139 22 7 44 16 49 20 8
8 -24 190 -34 190 -15 -1 -28 -19 -39 -53 -7 -21 -23 -45 -36 -53 -18 -12
-170 -74 -182 -74 -4 0 -53 114 -53 124 0 7 26 25 59 40 44 22 69 27 105 25
38 -4 45 -2 40 11 -3 8 -15 53 -27 100 -12 47 -23 87 -25 90 -2 3 -18 -12 -35
-32 -20 -23 -58 -49 -99 -68 -37 -16 -69 -30 -71 -30 -2 0 -14 23 -27 50 -28
59 -31 55 87 116 70 36 73 36 118 24 54 -15 63 -10 45 27 -7 16 -16 50 -19 77
-5 45 -18 65 -33 51z"/>
<path d="M6655 8027 c-49 -28 -216 -140 -385 -257 -69 -48 -144 -97 -167 -109
-24 -12 -43 -26 -43 -31 0 -11 8 -15 120 -56 41 -15 79 -31 85 -36 20 -18 34
-7 37 30 3 35 7 39 68 71 l66 34 128 -73 c138 -79 146 -88 146 -168 0 -32 -6
-52 -20 -68 l-21 -21 53 -33 c29 -18 76 -47 104 -65 27 -18 69 -42 92 -54 40
-20 42 -20 51 -3 7 14 6 25 -5 41 -26 36 -33 77 -54 291 -27 276 -27 336 2
359 22 18 21 18 -86 90 -58 40 -112 74 -119 76 -7 3 -30 -5 -52 -18z m15 -248
c6 -23 9 -43 7 -46 -6 -5 -107 45 -107 53 0 6 61 33 77 34 7 0 17 -18 23 -41z"/>
<path d="M3465 7824 c-116 -84 -197 -153 -190 -163 2 -5 18 -11 34 -14 21 -4
41 -21 65 -54 20 -26 36 -53 36 -59 0 -6 -43 -48 -96 -94 l-95 -83 -51 49 -50
49 5 58 c3 32 2 57 -2 55 -12 -5 -251 -256 -251 -263 0 -4 17 -4 39 0 25 4 50
1 72 -8 37 -16 204 -182 264 -261 31 -42 36 -56 33 -95 -2 -34 1 -47 13 -49
16 -3 209 188 209 207 0 6 -11 11 -24 11 -17 0 -43 20 -86 68 l-62 67 78 72
c44 40 82 72 86 70 3 -1 30 -31 58 -67 52 -66 55 -74 38 -139 -1 -7 2 -15 7
-17 12 -5 255 183 255 196 0 6 -11 10 -25 10 -62 0 -109 46 -208 206 -93 150
-101 184 -58 259 16 28 18 56 3 54 -4 0 -47 -29 -97 -65z"/>
<path d="M7375 7533 c16 -39 17 -110 2 -139 -24 -46 -207 -218 -260 -243 -33
-16 -57 -21 -78 -17 -16 3 -29 2 -29 -2 0 -14 201 -227 217 -230 13 -3 14 3 9
33 -7 35 -5 38 71 109 43 41 93 86 111 101 l32 27 0 -106 c0 -163 -27 -253
-87 -291 -18 -11 -32 -23 -33 -27 0 -14 133 -169 143 -165 7 2 13 20 15 40 3
29 14 46 61 90 48 44 71 57 132 75 150 44 201 49 277 26 16 -4 22 -2 22 9 0
12 -107 197 -124 214 -3 3 -11 -10 -19 -29 -13 -32 -21 -37 -80 -51 -37 -10
-75 -17 -86 -17 -22 0 -24 9 -42 210 -9 107 -15 141 -32 165 -44 64 -200 235
-214 235 -11 0 -13 -5 -8 -17z"/>
<path d="M5272 7224 c-13 -23 -3 -52 20 -59 22 -8 48 11 48 34 0 38 -51 56
-68 25z"/>
<path d="M5083 7214 c-14 -38 41 -71 66 -40 7 8 10 24 6 36 -8 25 -62 28 -72
4z"/>
<path d="M5467 7219 c-24 -14 -22 -56 3 -64 25 -8 50 10 50 36 0 24 -30 40
-53 28z"/>
<path d="M4922 7208 c-28 -28 -1 -75 37 -63 11 3 23 15 26 26 12 38 -35 65
-63 37z"/>
<path d="M5630 7185 c-24 -29 8 -75 44 -62 30 12 14 77 -20 77 -6 0 -17 -7
-24 -15z"/>
<path d="M4756 7174 c-19 -18 -19 -20 -6 -45 17 -31 70 -18 70 17 0 14 -27 44
-40 44 -5 0 -16 -7 -24 -16z"/>
<path d="M5795 7131 c-9 -31 5 -52 33 -49 33 4 50 31 33 52 -18 22 -58 20 -66
-3z"/>
<path d="M2792 7126 c-80 -26 -155 -97 -205 -191 -28 -53 -32 -69 -32 -145 0
-106 25 -164 93 -215 57 -44 110 -58 192 -53 115 9 223 86 272 196 30 65 32
220 4 272 -26 49 -74 98 -121 122 -50 26 -146 33 -203 14z m124 -181 c79 -51
74 -173 -9 -224 -64 -40 -149 -20 -187 42 -71 116 81 258 196 182z"/>
<path d="M4597 7133 c-12 -11 -8 -50 7 -62 28 -23 63 12 51 50 -6 19 -44 26
-58 12z"/>
<path d="M5968 7098 c-24 -20 -28 -44 -12 -67 17 -23 53 -28 72 -9 18 18 15
53 -6 71 -22 20 -33 21 -54 5z m36 -51 c-3 -9 -10 -17 -15 -17 -11 0 -12 34
-2 43 11 12 24 -8 17 -26z"/>
<path d="M4437 7083 c-13 -12 -7 -50 9 -64 31 -26 70 25 44 56 -13 16 -42 20
-53 8z"/>
<path d="M4315 7060 c-3 -6 -22 -18 -42 -28 l-35 -18 36 -28 c20 -15 36 -36
36 -47 0 -11 7 -19 16 -19 13 0 15 6 10 33 -4 17 -7 51 -6 75 1 42 -3 51 -15
32z"/>
<path d="M6102 7023 c-15 -29 3 -63 33 -63 31 0 42 23 27 56 -13 28 -47 32
-60 7z"/>
<path d="M4170 6995 c0 -6 41 -109 45 -113 2 -2 20 1 39 8 26 8 36 17 36 32 0
14 -5 18 -15 14 -8 -3 -22 -9 -30 -12 -10 -4 -19 6 -31 35 -9 23 -22 41 -30
41 -8 0 -14 -2 -14 -5z"/>
<path d="M6233 6944 c-8 -21 9 -48 32 -53 26 -5 47 26 34 50 -12 23 -57 25
-66 3z"/>
<path d="M5055 6944 c-246 -27 -575 -154 -792 -307 -134 -94 -374 -338 -462
-470 -236 -351 -339 -770 -287 -1167 53 -409 203 -720 491 -1019 211 -219 489
-383 781 -461 246 -66 560 -75 814 -24 213 43 512 178 690 312 355 265 606
691 676 1147 18 121 18 372 -1 501 -56 373 -244 738 -515 997 -262 251 -556
400 -930 472 -83 16 -378 28 -465 19z m-165 -136 c-120 -34 -368 -153 -499
-239 -148 -98 -362 -311 -466 -462 -63 -92 -162 -290 -199 -399 -15 -42 -38
-124 -51 -183 -13 -59 -26 -110 -29 -112 -3 -3 -11 -3 -19 0 -39 15 45 315
147 522 190 385 516 685 900 826 86 32 185 57 226 57 20 0 18 -2 -10 -10z m90
-84 c-36 -33 -43 -36 -65 -26 -37 17 -31 28 28 45 77 23 81 21 37 -19z m368
-70 c84 -91 163 -212 227 -347 30 -64 55 -120 55 -126 0 -8 -64 -11 -200 -11
l-200 0 0 296 0 295 29 -20 c16 -12 56 -51 89 -87z m-158 -194 l0 -290 -180 0
c-105 0 -180 4 -180 9 0 5 28 51 61 101 64 95 81 110 187 161 34 16 62 36 62
43 0 8 -30 42 -66 76 l-66 62 33 35 c37 38 116 93 137 93 9 0 12 -65 12 -290z
m475 235 l110 -43 -3 -59 c-5 -77 11 -132 45 -165 42 -38 263 -168 288 -168
11 0 40 14 63 31 l41 30 45 -68 44 -68 -95 -3 -94 -3 -46 51 c-32 36 -52 50
-67 48 -37 -5 -31 -42 11 -77 l38 -31 -95 0 -95 0 -67 138 c-80 165 -163 294
-243 381 l-60 64 35 -8 c19 -4 85 -26 145 -50z m-758 -96 l100 -100 -106 -51
c-58 -27 -124 -58 -147 -68 -39 -17 -46 -28 -119 -170 -47 -91 -98 -176 -130
-213 -29 -34 -57 -72 -64 -84 -16 -31 -14 -88 6 -165 13 -50 14 -71 6 -79 -16
-16 -88 52 -118 110 -13 25 -34 56 -47 68 -30 28 -95 34 -172 16 -32 -7 -60
-12 -62 -11 -1 2 28 67 66 145 l68 142 63 3 c79 4 97 28 20 28 -34 0 -51 4
-51 13 0 24 110 173 182 247 83 85 208 195 208 183 0 -4 -13 -30 -28 -57 -19
-36 -41 -58 -77 -79 -67 -38 -115 -86 -115 -113 0 -43 29 -35 127 34 88 61
100 73 138 143 23 42 45 88 48 102 6 22 59 55 93 56 5 1 55 -44 111 -100z
m1041 -43 c48 -30 113 -78 145 -107 l59 -52 -25 -24 c-24 -25 -24 -25 -59 -6
-97 52 -198 121 -207 141 -11 23 -15 102 -6 102 3 0 45 -24 93 -54z m-1560
-70 c-43 -40 -172 -217 -210 -285 -16 -29 -20 -31 -78 -31 -35 0 -60 4 -60 11
0 18 231 243 305 297 86 63 104 66 43 8z m1982 -291 c7 -9 8 -15 2 -15 -5 0
-12 7 -16 15 -3 8 -4 15 -2 15 2 0 9 -7 16 -15z m-2237 -61 c3 -4 -12 -43 -35
-88 -22 -44 -51 -112 -64 -150 -13 -39 -33 -80 -45 -92 -23 -25 -38 -79 -39
-139 0 -56 -32 -215 -42 -215 -5 0 -41 31 -80 69 -70 69 -71 70 -64 111 20
125 149 401 229 488 17 18 31 22 77 22 31 0 59 -3 63 -6z m1057 -364 l0 -360
-280 0 -280 0 0 39 c0 115 80 461 141 606 l31 75 194 0 194 0 0 -360z m475
343 c22 -54 78 -228 95 -293 18 -72 55 -294 63 -372 l3 -38 -298 0 -298 0 0
360 0 360 214 0 c194 0 215 -2 221 -17z m456 -50 l30 -67 -28 -21 c-64 -46
-96 -81 -123 -134 -18 -35 -30 -50 -33 -41 -3 8 -15 56 -27 105 -13 50 -33
120 -46 158 l-23 67 110 0 110 0 30 -67z m243 -19 c58 -139 104 -296 131 -450
14 -80 25 -154 25 -164 0 -19 -8 -20 -244 -20 -135 0 -247 4 -250 9 -3 5 -9
67 -12 137 l-6 129 40 80 c29 56 61 100 107 145 75 75 80 97 41 173 l-23 47
77 0 78 0 36 -86z m156 -33 c55 -38 189 -356 224 -531 l13 -65 -95 -3 c-52 -1
-96 -1 -98 1 -2 2 -11 55 -19 118 -20 146 -58 298 -101 411 -19 49 -34 91 -34
93 0 10 89 -10 110 -24z m-2291 -231 c10 -5 37 -40 59 -78 51 -86 101 -132
143 -132 27 0 30 -3 25 -23 -3 -13 -8 -49 -12 -80 l-7 -57 -120 0 -120 0 6 88
c5 80 3 90 -19 129 -33 58 -52 66 -104 48 -60 -21 -63 -20 -57 21 7 43 22 63
62 80 35 16 119 18 144 4z m-109 -276 l0 -94 -69 0 c-101 0 -100 -1 -87 75 6
35 16 69 21 74 14 14 118 50 128 44 4 -2 7 -47 7 -99z m-312 -93 c1 -3 -20 -4
-48 -3 -45 4 -50 6 -50 27 0 54 10 57 54 18 22 -20 42 -39 44 -42z m29 -181
l71 0 1 -120 c2 -210 30 -370 97 -564 19 -54 33 -100 32 -102 -2 -1 -37 -4
-78 -6 l-75 -3 -42 80 c-53 101 -108 261 -132 390 -19 99 -23 151 -22 274 l1
64 38 -7 c20 -3 69 -6 109 -6z m393 -56 c47 -62 48 -74 16 -193 -34 -124 -2
-208 134 -353 96 -103 144 -181 112 -185 -9 -1 -104 -4 -210 -5 l-192 -4 -31
81 c-39 100 -85 283 -99 395 -10 82 -14 312 -6 321 2 2 56 3 119 1 l115 -3 42
-55z m213 4 c4 -35 9 -126 12 -203 6 -126 16 -226 32 -310 5 -27 2 -25 -48 29
-128 140 -144 180 -110 293 28 98 27 149 -4 195 -14 20 -25 39 -25 42 0 3 24
7 53 9 28 2 59 4 68 5 13 2 18 -11 22 -60z m399 26 c23 -16 68 -65 98 -109 65
-94 124 -135 200 -143 l50 -5 1 -76 c2 -104 2 -106 19 -106 17 0 16 -1 18 108
l2 77 62 0 c101 0 178 -50 215 -139 23 -53 9 -94 -52 -161 -57 -62 -63 -76
-74 -163 l-6 -52 -71 -3 c-85 -4 -81 -12 -79 141 1 59 -2 110 -7 113 -4 3 -8
-2 -8 -10 0 -9 -4 -16 -8 -16 -5 0 -10 -48 -11 -106 -1 -59 -4 -111 -7 -115
-3 -5 -110 -9 -239 -9 l-234 0 -25 80 c-32 99 -62 247 -76 365 -11 105 -13
348 -2 359 4 5 49 6 99 4 83 -4 97 -7 135 -34z m1255 -26 c33 -57 81 -101 141
-132 25 -13 32 -22 27 -34 -4 -9 -8 -34 -8 -54 -1 -21 -5 -38 -10 -38 -5 0 -7
-10 -6 -22 1 -13 -2 -45 -6 -73 -5 -27 -8 -53 -7 -57 1 -5 -2 -8 -7 -8 -5 0
-8 -20 -6 -45 1 -25 -1 -42 -6 -39 -5 3 -9 1 -9 -4 0 -5 9 -12 20 -15 12 -3
20 -13 19 -24 -1 -16 -2 -16 -6 0 -2 9 -9 17 -15 17 -5 0 -8 -6 -5 -14 3 -7 1
-18 -4 -23 -5 -5 -11 -19 -14 -30 -3 -20 -33 -73 -41 -73 -2 0 -1 8 3 18 5 14
4 15 -8 4 -12 -11 -11 -16 6 -29 13 -10 14 -14 4 -10 -15 5 -46 -29 -41 -45 1
-5 -38 -8 -88 -8 -57 0 -90 4 -90 11 0 6 11 55 25 110 35 137 53 287 61 500 8
206 14 215 71 117z m-2464 46 c8 -8 -3 -34 -14 -34 -5 0 -9 9 -9 20 0 19 11
26 23 14z m1557 -99 c0 -121 -1 -122 -86 -80 -39 20 -61 41 -98 95 -27 39 -56
75 -65 80 -11 6 28 9 117 10 l132 0 0 -105z m650 33 c0 -105 -17 -284 -40
-423 -21 -126 -57 -275 -68 -287 -4 -4 -61 -8 -127 -9 l-120 -2 -3 38 c-5 56
3 76 53 141 25 32 50 75 56 95 44 147 -118 319 -301 319 l-60 0 0 100 0 100
305 0 305 0 0 -72z m688 35 c-3 -36 -5 -39 -63 -60 -71 -26 -154 -29 -196 -7
-35 18 -109 82 -109 95 0 5 84 9 186 9 l185 0 -3 -37z m238 -70 c-9 -134 -29
-251 -62 -368 -30 -105 -87 -247 -116 -287 -18 -26 -24 -28 -88 -28 l-68 0 29
87 c63 183 103 393 115 596 l6 107 95 0 96 0 -7 -107z m-562 -598 c3 -9 0 -15
-8 -15 -7 0 -13 7 -13 15 0 8 4 15 8 15 4 0 9 -7 13 -15z m-2047 -322 c15 -26
54 -83 87 -127 l59 -80 -54 39 c-61 44 -229 196 -229 207 0 5 25 8 55 8 54 0
54 0 82 -47z m482 -80 c71 -145 159 -282 255 -395 37 -44 60 -78 52 -78 -23 0
-186 60 -251 92 -178 89 -364 268 -500 481 l-17 27 199 0 200 0 62 -127z m551
74 c0 -51 -2 -55 -56 -107 -67 -65 -93 -117 -94 -183 0 -60 -8 -56 -70 39 -43
66 -160 284 -160 298 0 3 86 6 190 6 l190 0 0 -53z m63 28 c-23 -31 -33 -31
-33 0 0 20 5 25 25 25 26 0 26 0 8 -25z m1027 19 c0 -23 -125 -179 -220 -275
-152 -153 -281 -236 -469 -299 -98 -33 -105 -25 -39 47 119 129 230 305 307
486 l20 47 200 0 c111 0 201 -3 201 -6z m-50 -198 c0 -2 -17 -16 -37 -31 l-38
-27 33 31 c30 29 42 37 42 27z"/>
<path d="M4296 5534 c-17 -17 -20 -33 -8 -50 21 -31 72 -18 72 19 0 43 -35 60
-64 31z"/>
<path d="M5190 4705 c0 -17 9 -19 28 -6 11 7 10 10 -3 15 -23 9 -25 8 -25 -9z"/>
<path d="M6170 4578 c0 -12 3 -18 7 -14 11 10 12 36 2 36 -5 0 -9 -10 -9 -22z"/>
<path d="M4533 3973 c-7 -2 -13 -11 -13 -18 0 -17 69 -77 83 -72 23 7 19 39
-9 68 -27 29 -37 32 -61 22z"/>
<path d="M4025 6910 c-6 -9 11 -38 55 -97 11 -14 21 -19 30 -13 11 7 6 20 -23
64 -37 56 -50 65 -62 46z"/>
<path d="M6367 6883 c-12 -12 -7 -50 8 -63 19 -15 52 -4 60 21 4 11 1 26 -5
34 -13 15 -51 20 -63 8z"/>
<path d="M3934 6816 l7 -45 -30 12 c-23 9 -34 8 -43 -1 -9 -9 3 -18 52 -41 35
-17 66 -29 68 -26 4 3 -10 74 -25 128 -2 9 -11 17 -20 17 -12 0 -14 -8 -9 -44z"/>
<path d="M6512 6798 c-18 -18 -14 -46 7 -58 38 -20 71 13 51 51 -12 21 -40 25
-58 7z"/>
<path d="M6615 6715 c-29 -28 -31 -42 -7 -71 28 -35 58 -46 73 -28 11 13 8 19
-17 39 -24 21 -27 26 -14 34 10 7 21 6 35 -3 17 -11 24 -11 38 -1 17 12 16 15
-12 34 -38 28 -66 27 -96 -4z"/>
<path d="M3741 6682 c-12 -17 -21 -34 -21 -39 0 -4 21 -23 46 -42 33 -25 48
-31 56 -23 8 8 8 15 0 25 -16 19 -4 28 25 21 24 -7 57 12 47 27 -3 5 -17 9
-32 9 -19 0 -30 7 -37 23 -16 35 -58 34 -84 -1z m54 -31 c10 -17 -12 -21 -25
-6 -10 12 -10 15 3 15 9 0 18 -4 22 -9z"/>
<path d="M6748 6583 l-47 -37 31 -39 c36 -45 56 -56 69 -36 7 10 0 22 -23 42
-36 31 -33 33 17 13 44 -19 55 -4 24 31 l-24 26 28 -18 c40 -25 42 -14 4 23
l-32 31 -47 -36z"/>
<path d="M3645 6565 c-27 -26 -33 -73 -13 -93 13 -13 67 -16 84 -4 15 10 34
47 34 66 0 23 -36 56 -60 56 -12 0 -32 -11 -45 -25z m52 -26 c16 -16 5 -39
-17 -39 -25 0 -35 18 -20 35 15 18 22 19 37 4z"/>
<path d="M3516 6401 l-28 -29 26 -35 c14 -18 24 -36 21 -39 -3 -3 4 -13 15
-23 16 -15 23 -16 33 -6 9 9 9 13 -1 19 -9 6 -7 17 8 47 25 49 25 71 1 85 -31
16 -45 12 -75 -19z m64 -21 c0 -5 -5 -12 -11 -16 -14 -8 -33 11 -25 25 7 11
36 4 36 -9z"/>
<path d="M6918 6397 c-26 -17 -47 -39 -47 -47 0 -8 11 -28 24 -44 21 -27 26
-29 49 -18 19 8 26 19 26 39 0 24 1 25 13 10 8 -11 17 -14 26 -8 12 8 11 16
-5 55 -10 25 -23 46 -29 46 -5 0 -31 -15 -57 -33z m15 -80 c-3 -5 -9 -3 -14 4
-4 7 -5 17 -2 22 3 5 9 3 14 -4 4 -7 5 -17 2 -22z"/>
<path d="M2271 5642 c-22 -15 -57 -17 -290 -18 -162 -1 -276 -5 -292 -11 -101
-42 -156 -169 -129 -300 17 -81 42 -114 180 -243 67 -63 130 -126 141 -141 41
-58 37 -206 -7 -259 -34 -40 -92 -57 -142 -42 -64 19 -76 41 -82 144 -4 77 -8
93 -25 103 -13 9 -28 10 -42 4 -22 -8 -23 -13 -23 -126 0 -104 3 -123 23 -157
33 -58 75 -76 176 -76 46 0 120 7 164 16 109 22 257 16 319 -14 55 -27 69 -27
101 -1 32 25 44 67 53 184 4 70 3 94 -8 109 -22 29 -50 12 -82 -49 -44 -84
-63 -95 -162 -95 -46 0 -84 3 -84 6 0 3 7 28 16 55 23 69 14 210 -16 269 -12
23 -19 44 -17 46 11 11 66 -21 108 -62 34 -33 53 -45 70 -42 l24 3 0 160 c0
157 0 160 -22 163 -14 2 -36 -10 -61 -32 -24 -22 -50 -36 -66 -36 l-26 0 0
124 c0 69 -4 136 -10 150 l-10 26 89 0 c99 0 99 0 146 -88 25 -45 32 -53 54
-50 l26 3 -2 117 c-2 162 -28 206 -92 160z m-387 -154 c13 -18 16 -51 16 -150
0 -71 -4 -128 -9 -128 -15 0 -142 122 -157 152 -30 58 7 139 69 156 36 10 59
2 81 -30z"/>
<path d="M2842 5618 c-38 -10 -72 -58 -72 -101 0 -32 26 -87 40 -87 25 0 6
-18 -32 -29 -58 -18 -147 -109 -178 -183 -22 -55 -25 -58 -59 -58 -22 0 -43 8
-58 22 -32 30 -45 14 -41 -53 3 -60 -7 -55 96 -42 38 4 42 3 42 -16 0 -12 13
-49 28 -84 35 -76 96 -134 175 -167 31 -13 57 -27 57 -31 0 -4 -14 -16 -30
-26 -42 -25 -74 -93 -65 -140 9 -50 32 -81 76 -104 49 -24 80 -24 130 2 30 15
46 32 60 65 28 63 18 107 -38 163 -24 24 -41 46 -38 49 3 3 28 13 55 23 98 34
178 121 204 221 13 49 16 53 41 51 15 -1 36 -9 46 -19 28 -25 39 -8 39 62 0
68 -8 77 -46 49 -10 -8 -31 -15 -46 -15 -23 0 -30 8 -51 54 -35 77 -96 138
-167 170 l-59 27 25 37 c61 89 -25 191 -134 160z m78 -74 c19 -22 1 -68 -29
-72 -43 -7 -78 47 -49 76 17 17 63 15 78 -4z m-57 -297 l4 -107 -106 6 c-58 4
-110 10 -114 14 -10 9 14 60 50 106 37 49 153 118 160 95 1 -3 3 -54 6 -114z
m146 81 c47 -35 85 -78 107 -120 13 -26 24 -50 24 -54 0 -10 -203 7 -217 18
-14 11 -16 64 -7 145 l7 52 35 -15 c20 -8 43 -20 51 -26z m131 -256 c-1 -59
-82 -160 -154 -193 -76 -34 -76 -34 -76 99 l0 117 115 -3 c100 -3 115 -5 115
-20z m-344 2 c53 -25 64 -49 64 -131 0 -68 -1 -73 -22 -73 -59 0 -147 70 -182
145 -35 75 -35 75 39 75 41 0 80 -6 101 -16z m144 -382 c43 -54 12 -122 -55
-122 -69 0 -102 73 -57 124 36 40 80 40 112 -2z"/>
<path d="M8250 5609 c0 -6 20 -30 46 -52 38 -34 62 -75 162 -276 l117 -236 3
-207 3 -206 -31 -36 c-17 -19 -29 -40 -25 -46 8 -14 292 -14 300 0 4 6 -5 24
-18 40 -32 38 -40 105 -35 300 l3 145 92 215 c131 308 133 313 150 332 28 31
6 38 -112 38 -112 0 -141 -8 -116 -33 6 -6 11 -25 11 -43 0 -34 -97 -294 -110
-294 -7 0 -107 224 -120 270 -7 26 3 58 23 71 5 4 6 12 3 18 -10 16 -346 15
-346 0z"/>
<path d="M7645 5561 c-76 -19 -126 -66 -140 -133 -6 -26 -10 -28 -58 -28 -29
0 -69 -5 -89 -10 -66 -19 -68 -28 -68 -273 l0 -218 25 -24 c13 -14 35 -25 49
-25 24 0 24 -1 28 -113 2 -78 7 -119 17 -130 12 -15 43 -17 260 -17 286 0 324
7 383 67 20 21 42 51 47 66 7 18 12 149 12 345 l2 315 -23 19 c-12 10 -37 18
-56 18 -38 0 -42 8 -46 95 l-3 50 -155 2 c-85 0 -168 -2 -185 -6z m295 -131
l0 -81 52 6 c55 6 69 -2 61 -36 -5 -18 -17 -19 -183 -19 -143 0 -179 -3 -183
-14 -3 -8 -3 -17 0 -20 4 -3 86 -6 184 -6 l177 0 4 -25 c3 -14 2 -28 -3 -31
-5 -3 -89 -4 -186 -3 -175 2 -178 1 -181 -20 -3 -21 -2 -21 186 -21 l189 0 -2
-22 c-2 -23 -4 -23 -183 -28 -100 -3 -182 -8 -182 -12 0 -5 0 -12 0 -18 0 -6
72 -11 183 -12 195 -3 184 0 178 -49 -1 -8 -55 -10 -181 -7 l-180 3 0 -22 c0
-22 1 -23 183 -25 l182 -3 0 -23 0 -24 -183 2 c-158 1 -183 -1 -188 -15 -4 -9
-5 -18 -3 -20 3 -2 89 -7 192 -11 l187 -7 0 -35 0 -34 -217 3 c-209 3 -263 -1
-263 -22 0 -5 -4 -9 -10 -9 -6 0 -10 115 -10 324 0 320 0 323 23 357 32 48 71
58 225 58 l132 1 0 -80z m-442 -112 c-3 -21 -9 -23 -80 -26 -80 -3 -91 3 -62
32 11 11 35 16 80 16 62 0 65 -1 62 -22z m2 -93 c0 -25 -1 -25 -80 -25 -79 0
-80 0 -80 25 0 25 1 25 80 25 79 0 80 0 80 -25z m0 -95 c0 -18 -7 -20 -80 -20
-73 0 -80 2 -80 20 0 18 7 20 80 20 73 0 80 -2 80 -20z m0 -95 c0 -25 -1 -25
-80 -25 -79 0 -80 0 -80 25 0 25 1 25 80 25 79 0 80 0 80 -25z m-5 -90 c0 -18
-8 -20 -69 -23 -72 -3 -93 5 -82 33 5 13 19 15 78 13 65 -3 73 -5 73 -23z m7
-163 c3 -49 11 -98 17 -110 11 -21 10 -22 -29 -22 l-40 0 0 110 c0 109 0 110
24 110 22 0 23 -4 28 -88z m196 -69 c6 -44 -66 -54 -88 -12 -16 29 -3 40 43
37 34 -2 43 -7 45 -25z m342 17 c0 -6 -51 -10 -134 -10 -79 0 -137 4 -141 10
-4 6 43 10 134 10 87 0 141 -4 141 -10z m-85 -70 c-11 -5 -54 -9 -95 -9 -41 0
-84 4 -95 9 -13 5 22 9 95 9 73 0 108 -4 95 -9z"/>
<path d="M3709 3909 c-8 -15 -8 -24 0 -32 6 -6 11 -18 10 -26 0 -12 -4 -10
-16 7 -21 30 -38 28 -67 -11 -31 -40 -35 -73 -8 -62 33 13 72 24 72 19 0 -3
-13 -17 -30 -31 -32 -27 -39 -57 -15 -67 8 -3 28 6 45 20 29 25 30 25 30 4 0
-39 29 -82 53 -78 31 4 33 34 3 73 -14 18 -26 40 -26 47 0 7 18 31 40 52 45
43 50 79 14 84 -13 2 -25 -6 -34 -23 -17 -32 -33 -33 -20 -1 16 42 -29 65 -51
25z"/>
<path d="M6714 3915 c-4 -9 -1 -28 6 -43 l12 -27 -29 28 c-33 30 -61 35 -70
11 -4 -11 9 -31 40 -61 26 -25 47 -49 47 -55 0 -6 -11 -24 -26 -40 -31 -38
-29 -73 6 -73 31 0 52 39 44 80 l-6 30 31 -33 c34 -36 54 -38 59 -4 2 14 -7
31 -24 47 -33 31 -28 40 10 20 37 -20 46 -19 46 4 0 29 -50 83 -71 78 -13 -4
-19 2 -21 22 -4 31 -44 43 -54 16z"/>
<path d="M3967 3544 c-13 -13 -7 -52 9 -58 22 -9 46 13 42 38 -3 21 -37 34
-51 20z"/>
<path d="M6462 3538 c-16 -16 -15 -33 2 -47 17 -15 43 -5 49 19 8 33 -27 52
-51 28z"/>
<path d="M7080 3530 c-9 -17 -6 -24 20 -47 l31 -26 -38 -23 c-38 -22 -38 -22
-59 -3 -22 21 -41 24 -64 9 -12 -8 1 -26 70 -95 46 -47 90 -85 96 -85 6 0 17
7 24 15 11 13 8 21 -20 50 l-33 34 29 25 29 25 25 -29 c29 -35 55 -38 71 -9
10 19 3 29 -67 100 -43 44 -84 79 -91 79 -7 0 -17 -9 -23 -20z"/>
<path d="M3328 3464 c-43 -42 -78 -79 -78 -83 0 -4 27 -33 60 -66 l60 -59 22
22 23 22 -45 39 c-43 38 -44 40 -27 58 17 17 19 17 43 -15 28 -35 45 -40 63
-18 10 11 6 21 -19 49 -41 47 -20 61 25 17 24 -24 38 -30 54 -25 12 3 21 12
21 19 0 14 -101 116 -115 116 -6 0 -45 -35 -87 -76z"/>
<path d="M4116 3508 c-58 -29 -58 -30 -53 -68 6 -47 29 -97 42 -90 6 3 9 7 9
10 -14 51 -13 53 5 20 25 -46 57 -74 76 -67 24 10 18 36 -15 67 l-29 27 41 6
c46 6 74 28 65 51 -8 21 -51 20 -82 0 -15 -10 -25 -12 -25 -5 0 6 4 11 9 11
14 0 41 29 41 45 0 25 -26 23 -84 -7z"/>
<path d="M6274 3515 c-8 -19 3 -34 34 -47 16 -6 22 -12 14 -15 -7 -3 -24 2
-37 11 -31 21 -64 20 -72 -1 -9 -22 31 -53 70 -53 l31 0 -26 -27 c-15 -16 -28
-37 -30 -48 -5 -31 36 -32 67 -1 14 14 25 21 25 16 0 -6 4 -10 10 -10 14 0 37
49 44 95 l7 40 -53 28 c-60 31 -76 33 -84 12z"/>
<path d="M3555 3280 c-67 -82 -75 -104 -42 -124 16 -9 24 -4 57 34 l39 44 3
-79 c3 -73 5 -80 24 -83 16 -2 37 16 85 73 67 80 76 101 46 119 -16 9 -25 4
-58 -34 l-39 -45 0 65 c0 62 -17 110 -40 110 -4 0 -38 -36 -75 -80z"/>
<path d="M6816 3334 c-34 -35 -35 -82 -2 -113 19 -18 32 -22 53 -18 96 20 93
21 93 -2 0 -14 -8 -22 -27 -27 -49 -10 -53 -13 -53 -33 0 -26 32 -35 75 -21
42 14 65 44 65 86 0 66 -42 87 -140 69 -41 -8 -44 -7 -31 8 7 10 19 17 25 17
7 0 21 6 31 14 16 12 17 16 6 30 -20 24 -65 20 -95 -10z"/>
<path d="M4631 3274 c-12 -15 -21 -31 -21 -36 0 -12 42 -54 61 -60 10 -4 11
-9 3 -17 -8 -9 -17 -6 -36 9 -32 24 -44 25 -52 4 -13 -34 61 -82 109 -70 57
14 57 81 -1 116 -43 27 -38 39 6 14 27 -16 32 -17 40 -4 15 23 12 29 -22 50
-44 27 -63 25 -87 -6z"/>
<path d="M5737 3283 c-4 -3 -7 -21 -7 -39 l0 -34 -44 31 c-60 43 -70 34 -63
-56 8 -92 14 -105 44 -105 25 0 26 1 20 51 l-6 52 36 -37 c23 -23 45 -36 58
-34 18 3 20 10 19 69 -1 37 -7 76 -13 88 -12 21 -31 27 -44 14z"/>
<path d="M4882 3233 c-19 -39 -44 -142 -38 -158 10 -27 38 -13 52 25 l12 35
16 -37 c20 -46 41 -48 64 -8 22 39 30 38 34 -7 2 -30 7 -38 23 -38 18 0 20 6
19 83 -1 61 -5 88 -17 99 -13 14 -17 13 -33 -4 -11 -10 -26 -30 -36 -43 l-16
-25 -11 30 c-23 63 -51 83 -69 48z"/>
<path d="M5416 3233 c-16 -4 -18 -14 -14 -83 2 -44 8 -83 13 -88 16 -15 126
-2 132 15 8 20 -14 33 -55 33 -20 0 -31 4 -27 10 3 6 15 10 26 10 12 0 19 7
19 20 0 15 -7 20 -25 20 -37 0 -30 18 8 22 24 2 33 8 35 26 3 20 0 22 -45 21
-26 -1 -56 -3 -67 -6z"/>
<path d="M6647 3223 c-4 -3 -7 -12 -7 -20 0 -19 109 -183 126 -190 17 -6 44
14 44 32 0 18 -130 185 -144 185 -7 0 -16 -3 -19 -7z"/>
<path d="M5182 3133 l3 -88 60 0 c53 0 60 2 60 20 0 15 -8 21 -32 23 -39 4
-45 22 -7 22 21 0 25 4 22 23 -2 14 -11 23 -26 25 -31 5 -17 22 19 22 22 0 29
5 29 20 0 18 -7 20 -65 20 l-66 0 3 -87z"/>
<path d="M6477 3136 c-79 -45 -85 -52 -64 -73 14 -14 21 -15 43 -4 15 6 28 10
29 9 1 -2 23 -36 48 -75 48 -75 68 -88 87 -54 8 16 3 32 -30 83 -43 69 -49 92
-24 102 15 6 15 8 -1 26 -10 11 -21 20 -24 19 -3 0 -32 -15 -64 -33z"/>
<path d="M3840 3112 c-34 -34 -40 -46 -40 -82 0 -26 8 -53 21 -71 22 -32 86
-69 118 -69 24 0 91 61 91 84 0 20 -56 56 -88 56 -33 0 -40 -29 -13 -51 35
-29 0 -37 -39 -9 -23 16 -30 29 -30 55 0 43 41 79 80 70 24 -6 33 -14 56 -52
10 -14 16 -16 30 -7 29 17 28 39 -4 75 -24 27 -37 33 -85 37 -55 4 -58 3 -97
-36z"/>
<path d="M3226 3113 c-18 -18 141 -195 270 -299 377 -303 958 -509 1564 -555
238 -18 560 2 813 51 406 79 835 261 1127 478 94 71 258 235 288 290 34 63 30
61 -153 -70 -264 -191 -649 -376 -1002 -484 -133 -40 -362 -86 -518 -105 -164
-20 -597 -18 -755 4 -334 47 -645 142 -966 297 -202 97 -311 161 -489 287
-141 100 -168 116 -179 106z"/>
<path d="M6308 3049 c-24 -14 -23 -28 7 -72 14 -20 24 -37 21 -37 -2 0 -31 14
-64 30 -106 53 -119 37 -72 -83 34 -87 54 -117 77 -117 23 0 27 30 9 67 -9 20
-15 37 -12 40 2 2 27 -7 56 -22 105 -53 124 -16 58 114 -24 46 -48 86 -53 87
-6 2 -18 -1 -27 -7z"/>
<path d="M4174 3010 c-11 -4 -33 -22 -47 -40 -52 -62 -27 -154 54 -195 30 -16
87 -20 105 -7 19 12 46 73 40 88 -6 15 -65 44 -90 44 -25 0 -29 -33 -7 -52 12
-9 21 -21 21 -27 0 -30 -77 10 -86 44 -9 38 4 74 31 87 31 14 76 2 82 -22 6
-23 37 -32 59 -15 16 11 16 14 -4 47 -33 52 -98 73 -158 48z"/>
<path d="M5995 2936 c-57 -18 -70 -26 -68 -42 3 -33 51 -186 62 -197 7 -7 32
-4 83 9 67 19 73 23 76 49 4 31 12 30 -88 9 -43 -9 -40 18 5 39 37 18 44 37
20 57 -11 9 -22 9 -46 1 -35 -12 -44 -9 -36 12 3 8 26 19 51 26 46 11 51 17
40 45 -8 20 -14 20 -99 -8z"/>
<path d="M4483 2908 c-18 -25 -75 -187 -70 -201 7 -20 159 -60 169 -44 16 24
2 41 -44 56 -27 9 -49 20 -50 24 0 4 9 42 22 83 21 65 22 77 9 85 -19 12 -25
11 -36 -3z"/>
<path d="M4746 2843 c-3 -10 -14 -60 -24 -110 -16 -77 -17 -96 -6 -110 10 -14
17 -16 31 -7 23 14 66 212 50 232 -14 18 -45 15 -51 -5z"/>
<path d="M5605 2821 c-3 -10 -1 -30 4 -44 9 -23 7 -25 -25 -31 -42 -8 -54 -2
-54 28 0 32 -24 61 -44 53 -19 -7 -20 -37 -6 -147 10 -78 27 -107 55 -96 13 5
16 16 13 51 -3 44 -2 45 29 51 41 8 53 0 53 -35 0 -33 20 -54 44 -45 19 7 20
33 6 124 -17 106 -18 110 -45 110 -14 0 -26 -7 -30 -19z"/>
<path d="M4944 2819 c-60 -30 -53 -91 16 -134 22 -14 40 -30 40 -35 0 -20 -33
-23 -65 -5 -55 29 -77 -6 -29 -44 40 -32 106 -29 133 5 40 51 24 96 -46 124
-18 7 -33 16 -33 21 0 18 21 19 51 3 31 -15 33 -15 46 2 12 16 10 21 -9 41
-27 27 -75 37 -104 22z"/>
<path d="M3066 8707 c-17 -12 -17 -18 -4 -90 8 -42 11 -77 6 -77 -5 0 -39 15
-76 34 -50 25 -72 32 -85 25 -30 -17 -19 -33 51 -76 102 -62 170 -94 177 -83
6 10 -12 230 -21 263 -6 20 -23 22 -48 4z"/>
<path d="M7470 8545 c-63 -35 -115 -69 -115 -76 0 -7 12 -20 27 -28 24 -14 28
-14 45 2 18 16 21 15 57 -22 21 -22 35 -44 32 -50 -12 -19 14 -52 37 -49 19 3
24 16 44 118 25 126 26 164 3 167 -8 1 -67 -27 -130 -62z m66 -93 c-4 -3 -14
2 -24 12 -16 16 -16 18 3 32 19 14 20 13 23 -11 2 -15 1 -30 -2 -33z"/>
<path d="M2792 8518 c-18 -18 -17 -22 44 -125 46 -78 59 -94 77 -91 36 5 30
37 -26 133 -53 90 -72 106 -95 83z"/>
<path d="M7744 8424 c-39 -19 -74 -80 -74 -128 0 -68 51 -133 112 -142 62 -10
81 47 20 61 -42 9 -66 39 -65 81 3 88 107 107 149 28 20 -38 48 -43 68 -12 8
14 4 25 -20 54 -55 68 -126 90 -190 58z"/>
<path d="M2603 8371 c-35 -32 -63 -61 -63 -65 0 -9 88 -125 123 -163 26 -28
33 -30 51 -21 42 23 126 102 126 120 0 34 -28 31 -72 -6 -23 -20 -47 -36 -54
-36 -29 0 -24 24 11 60 35 36 36 40 22 60 l-15 21 -35 -30 c-19 -17 -39 -31
-45 -31 -28 0 -20 26 19 66 36 37 42 47 33 62 -19 30 -37 23 -101 -37z"/>
<path d="M2372 8157 c-34 -34 -62 -65 -62 -68 0 -11 170 -181 178 -177 19 7
142 124 142 134 0 6 -9 19 -19 29 -19 17 -22 15 -75 -35 -49 -46 -55 -50 -65
-33 -8 15 -3 25 30 59 l40 40 -21 19 c-20 18 -21 18 -58 -18 -36 -35 -39 -36
-55 -20 -16 16 -14 20 30 59 42 36 46 43 34 58 -7 9 -19 16 -25 16 -6 0 -40
-28 -74 -63z"/>
<path d="M8003 8199 c-35 -10 -80 -58 -89 -95 -22 -88 69 -193 146 -169 29 9
25 34 -7 46 -46 17 -73 49 -73 86 0 72 77 98 131 44 16 -16 29 -37 29 -46 0
-21 39 -17 53 6 14 23 -18 84 -57 108 -39 24 -92 32 -133 20z"/>
<path d="M2147 7911 l-59 -60 67 -63 c102 -95 124 -109 146 -95 29 18 30 35 2
56 -16 14 -23 26 -19 37 5 13 15 15 60 9 51 -6 56 -5 72 20 23 35 10 46 -55
48 -50 2 -51 2 -51 35 0 41 -30 72 -72 72 -25 0 -43 -12 -91 -59z m103 -26
c10 -12 9 -20 -4 -40 -20 -30 -27 -31 -51 -5 -17 19 -17 21 0 40 22 24 38 25
55 5z"/>
<path d="M8206 7902 c-71 -15 -131 -31 -132 -37 -2 -5 8 -23 22 -40 22 -27 26
-28 35 -12 13 22 30 13 63 -32 18 -24 23 -41 19 -65 -5 -34 16 -64 37 -51 16
10 120 222 120 245 0 25 -4 25 -164 -8z m68 -73 l-16 -32 -21 22 c-19 19 -20
23 -7 31 8 5 25 10 38 10 22 0 22 -1 6 -31z"/>
<path d="M1975 7706 c-101 -45 -122 -173 -40 -245 65 -57 166 -36 206 41 41
80 13 172 -61 202 -48 19 -65 19 -105 2z m103 -79 c47 -43 11 -127 -54 -127
-43 0 -74 30 -74 71 0 81 68 111 128 56z"/>
<path d="M8402 7654 c-62 -40 -99 -71 -96 -78 4 -6 28 -39 53 -73 47 -63 69
-75 91 -48 10 12 5 23 -25 60 -44 53 -44 52 52 122 62 46 77 74 42 81 -8 1
-61 -27 -117 -64z"/>
<path d="M8693 3693 c-19 -7 -16 -37 7 -66 11 -14 20 -28 20 -31 0 -3 -17 -14
-37 -23 -46 -22 -59 -63 -21 -63 13 0 43 9 66 20 31 14 55 18 81 14 27 -4 41
-2 50 10 18 21 -2 46 -37 46 -18 0 -39 15 -71 49 -25 27 -52 47 -58 44z"/>
<path d="M1801 3637 c-6 -8 -8 -17 -4 -20 10 -11 -6 -8 -26 5 -30 18 -51 3
-51 -37 0 -43 -18 -46 -26 -5 -4 17 -8 30 -11 30 -17 0 -43 -24 -43 -40 0 -56
57 -103 99 -81 18 10 41 64 41 101 0 13 2 13 9 0 6 -8 8 -18 5 -22 -8 -12 15
-48 31 -48 7 0 21 8 30 17 21 21 14 82 -12 100 -21 16 -28 16 -42 0z"/>
<path d="M8608 3476 c-8 -7 -22 -41 -33 -75 -17 -57 -17 -63 -2 -78 13 -13 19
-14 31 -3 9 7 16 18 16 26 0 24 18 25 72 4 63 -24 87 -25 94 -5 10 24 -11 40
-77 60 -52 16 -60 21 -55 39 5 20 -9 46 -25 46 -4 0 -14 -6 -21 -14z"/>
<path d="M1833 3430 c-91 -55 -90 -163 2 -207 29 -14 41 -14 74 -5 106 32 126
168 31 217 -39 20 -69 19 -107 -5z m85 -56 c44 -31 16 -104 -40 -104 -22 0
-58 34 -58 55 0 19 44 65 62 65 8 0 24 -7 36 -16z"/>
<path d="M8522 3288 c-21 -21 -13 -55 23 -102 19 -26 35 -48 35 -50 0 -2 -26
6 -58 17 -61 22 -92 19 -92 -8 0 -20 122 -77 170 -79 28 -1 36 3 44 25 9 28 8
34 -23 85 l-19 31 38 -20 c32 -18 40 -19 54 -8 24 20 20 29 -26 52 -24 12 -57
32 -75 45 -35 27 -53 30 -71 12z"/>
<path d="M1978 3140 c-87 -45 -97 -55 -74 -78 14 -14 23 -12 103 26 72 35 88
46 88 65 0 34 -31 31 -117 -13z"/>
<path d="M2070 3010 c-56 -33 -85 -56 -85 -67 0 -19 34 -23 67 -9 12 6 21 -1
33 -25 16 -31 16 -33 0 -45 -20 -15 -17 -43 8 -58 15 -9 26 -2 72 46 41 42 55
64 55 85 -1 30 -40 115 -55 119 -6 2 -48 -19 -95 -46z m90 -44 c0 -8 -3 -22
-6 -31 -6 -14 -8 -13 -21 5 -8 11 -11 25 -8 30 9 15 35 12 35 -4z"/>
<path d="M8336 3000 c-51 -56 -48 -79 17 -123 28 -20 62 -44 75 -53 21 -16 24
-16 42 1 27 24 25 44 -5 55 -14 5 -25 16 -25 25 0 11 12 15 48 15 50 0 72 12
72 41 0 15 -10 19 -52 21 -46 3 -54 6 -66 31 -20 42 -61 37 -106 -13z m64 -39
c0 -22 -15 -35 -30 -26 -7 4 -7 13 0 26 14 25 30 25 30 0z"/>
<path d="M8163 2795 c-35 -36 -63 -69 -63 -74 0 -5 7 -14 15 -21 13 -11 21 -8
45 15 l30 29 49 -55 49 -54 23 22 22 21 -52 59 c-50 56 -51 58 -32 72 16 10
18 17 10 32 -5 10 -15 19 -21 19 -7 0 -40 -29 -75 -65z"/>
<path d="M2286 2815 c-18 -18 -21 -70 -6 -109 15 -40 -7 -42 -43 -3 -18 19
-38 32 -44 30 -23 -8 -14 -54 16 -83 38 -38 74 -47 107 -25 25 16 26 19 19 86
-5 47 -4 69 4 69 6 0 14 -15 19 -32 6 -26 14 -33 33 -33 20 0 24 4 22 30 -4
45 -34 80 -75 83 -23 2 -41 -3 -52 -13z"/>
<path d="M2426 2601 c-43 -43 -67 -75 -64 -86 1 -10 29 -40 61 -68 l58 -51 22
23 22 22 -21 17 c-12 9 -34 26 -50 38 l-28 21 53 61 c34 39 51 67 48 77 -11
27 -31 16 -101 -54z"/>
<path d="M7994 2626 c-49 -48 -54 -71 -23 -110 27 -34 60 -33 102 4 31 27 47
30 47 8 0 -5 -16 -24 -36 -42 -39 -36 -38 -56 1 -56 36 0 85 48 91 90 4 27 1
42 -16 63 -29 37 -57 34 -102 -10 -32 -31 -38 -34 -44 -19 -5 12 4 28 26 51
20 21 30 40 27 49 -10 25 -27 19 -73 -28z"/>
<path d="M2872 2353 c-36 -17 -62 -58 -62 -95 0 -29 30 -75 63 -97 l26 -17
-23 -29 -24 -30 -26 28 c-67 72 -169 58 -210 -28 -22 -46 -17 -102 12 -143 18
-25 59 -49 113 -65 14 -5 14 -13 -2 -84 -10 -43 -21 -96 -25 -118 l-6 -40 -17
25 c-35 52 -64 80 -83 80 -18 0 -20 -5 -15 -33 6 -38 63 -139 105 -184 29 -31
30 -31 119 -29 79 1 95 5 131 28 27 18 49 45 66 80 31 64 57 176 44 184 -15
10 -139 -6 -178 -23 -19 -8 -48 -26 -64 -41 l-28 -27 7 35 c8 38 40 127 53
147 6 9 21 5 60 -14 57 -28 130 -39 187 -29 44 9 101 63 110 107 10 42 -12 60
-98 84 -59 16 -71 16 -138 2 -41 -8 -75 -14 -75 -13 -1 0 18 29 42 63 l45 61
30 -15 c88 -44 194 53 149 136 -14 26 -64 44 -103 37 -29 -5 -35 -3 -45 19
-11 24 -65 55 -94 55 -7 0 -28 -8 -46 -17z m82 -59 c21 -21 20 -40 -4 -64 -24
-24 -38 -25 -62 -3 -22 20 -23 41 -1 65 20 22 46 23 67 2z m150 -60 c9 -8 16
-19 16 -24 0 -15 -31 -40 -49 -40 -20 0 -41 19 -41 36 0 17 28 44 45 44 7 0
21 -7 29 -16z m-341 -146 c46 -24 58 -63 35 -113 -6 -14 -18 -26 -27 -27 -66
-6 -111 26 -111 79 0 59 51 89 103 61z m329 -119 c68 -14 74 -20 43 -49 -39
-36 -109 -39 -181 -6 -64 29 -63 39 6 54 62 14 71 14 132 1z m-105 -294 c-28
-78 -72 -115 -137 -115 -44 0 -50 3 -50 20 0 67 101 148 186 150 l22 0 -21
-55z"/>
<path d="M2723 2055 c-3 -9 -3 -18 0 -21 9 -9 27 6 27 22 0 19 -19 18 -27 -1z"/>
<path d="M7584 2356 c-17 -8 -39 -25 -48 -37 -14 -20 -25 -24 -67 -24 -44 0
-54 -4 -76 -29 -46 -54 -16 -126 60 -147 27 -7 48 -7 69 0 17 6 32 11 34 11 3
0 75 -95 88 -117 6 -10 1 -11 -21 -2 -67 25 -125 30 -187 14 -79 -21 -106 -39
-106 -72 0 -33 41 -88 82 -109 48 -25 163 -15 221 19 35 21 47 24 55 14 13
-15 46 -98 60 -151 l11 -39 -32 31 c-18 17 -51 38 -74 46 -42 15 -168 24 -179
13 -3 -3 6 -44 20 -91 45 -147 111 -198 248 -192 70 3 79 6 102 32 14 16 42
60 61 98 35 69 45 116 24 116 -13 0 -78 -64 -96 -95 -11 -18 -12 -16 -12 17
-1 38 -25 171 -36 199 -5 13 2 18 30 22 136 22 172 201 53 263 -45 24 -103 13
-143 -26 l-32 -31 -22 27 -21 27 40 43 c33 36 40 51 40 84 0 31 -6 47 -26 65
-15 14 -32 25 -38 25 -6 0 -20 2 -31 5 -11 3 -34 -2 -51 -9z m77 -65 c23 -19
23 -21 9 -48 -28 -51 -90 -39 -90 18 0 46 42 62 81 30z m-151 -70 c7 -15 6
-24 -6 -36 -31 -30 -86 0 -71 39 9 23 64 21 77 -3z m363 -152 c31 -39 17 -88
-33 -114 -39 -20 -66 -19 -90 5 -22 22 -26 70 -9 101 23 43 99 47 132 8z
m-272 -111 c22 -6 39 -15 39 -19 0 -4 -19 -17 -43 -28 -72 -35 -167 -24 -207
24 -17 20 -12 24 41 35 49 10 113 6 170 -12z m6 -243 c79 -24 162 -130 122
-156 -19 -13 -79 -2 -109 20 -22 15 -89 123 -90 144 0 11 21 9 77 -8z"/>
<path d="M7780 2060 c0 -6 7 -13 16 -17 9 -3 20 -15 24 -27 9 -20 9 -21 9 -1
1 11 -8 28 -19 38 -23 20 -30 21 -30 7z"/>
<path d="M1883 2201 c-57 -26 -93 -82 -93 -144 0 -45 24 -117 39 -117 3 0 15
28 26 63 31 97 100 131 173 87 21 -13 35 -31 39 -50 5 -28 8 -30 51 -30 l45 0
-5 50 c-12 125 -152 196 -275 141z"/>
<path d="M8468 2200 c-57 -31 -91 -82 -96 -147 l-5 -56 33 6 c18 4 39 7 46 7
8 0 14 5 14 12 0 6 11 26 26 45 22 29 31 33 69 33 37 0 50 -6 79 -35 20 -20
41 -54 49 -82 l14 -48 21 45 c12 25 22 58 22 73 0 52 -49 125 -102 153 -39 20
-126 17 -170 -6z"/>
<path d="M3686 1867 c-15 -11 -26 -71 -15 -81 2 -2 27 0 54 3 46 6 50 8 53 36
6 47 -50 73 -92 42z"/>
<path d="M6787 1862 c-28 -31 -22 -59 16 -65 17 -3 40 -8 49 -12 13 -5 21 0
29 19 26 56 -53 104 -94 58z"/>
<path d="M3813 1848 c-24 -32 -22 -47 14 -78 32 -28 35 -35 30 -70 -5 -37 -3
-39 25 -45 39 -9 78 11 78 40 0 23 -28 55 -49 55 -8 0 -10 10 -6 34 6 27 2 39
-14 55 -23 23 -63 28 -78 9z"/>
<path d="M6668 1843 c-26 -30 -28 -41 -18 -67 10 -29 26 -32 65 -14 33 15 43
53 20 78 -22 25 -47 25 -67 3z"/>
<path d="M3582 1774 c-18 -12 -22 -24 -20 -52 2 -30 8 -38 30 -46 18 -7 35 -6
53 2 21 10 25 18 25 51 0 57 -41 78 -88 45z"/>
<path d="M6896 1771 c-41 -45 14 -118 67 -90 42 23 49 57 17 89 -25 25 -62 26
-84 1z"/>
<path d="M6618 1739 c-21 -12 -24 -59 -6 -77 7 -7 21 -12 33 -12 12 0 26 5 33
12 19 19 15 66 -7 78 -24 12 -31 12 -53 -1z"/>
<path d="M6209 1675 l-21 -34 -27 20 c-28 21 -55 18 -65 -7 -4 -10 10 -26 38
-46 35 -24 47 -40 55 -75 10 -37 15 -44 34 -41 20 3 22 7 19 62 -3 41 1 70 14
98 15 34 16 41 3 49 -22 14 -28 11 -50 -26z"/>
<path d="M3634 1635 c-32 -49 7 -118 66 -118 36 0 46 8 55 45 6 22 1 33 -29
62 -41 42 -69 45 -92 11z"/>
<path d="M6825 1632 c-22 -21 -30 -38 -31 -64 -1 -33 2 -38 29 -48 38 -13 68
4 87 51 12 27 11 36 -1 58 -20 35 -48 36 -84 3z"/>
<path d="M6677 1632 c-50 -55 26 -138 77 -86 27 26 20 60 -18 83 -40 25 -39
25 -59 3z"/>
<path d="M3813 1622 c-37 -18 -49 -49 -26 -74 41 -46 131 0 103 52 -17 32 -42
39 -77 22z"/>
<path d="M5942 1620 c-41 -38 -17 -99 39 -101 13 0 33 -4 44 -9 17 -6 17 -9 4
-14 -8 -4 -30 -5 -48 -4 -39 3 -49 -12 -26 -36 27 -27 104 -16 127 18 26 38
-19 96 -73 96 -16 0 -29 5 -29 10 0 6 13 10 29 10 37 0 50 19 26 37 -27 19
-68 16 -93 -7z"/>
<path d="M4661 1617 c-55 -28 -54 -83 4 -110 19 -9 35 -21 35 -27 0 -13 -6
-13 -47 2 -45 16 -64 -1 -34 -31 44 -44 111 -40 131 9 16 39 9 56 -36 82 -40
23 -28 39 12 17 19 -10 27 -10 36 -1 10 10 7 18 -12 36 -33 31 -60 38 -89 23z"/>
<path d="M4364 1605 c-9 -23 16 -46 45 -43 29 3 41 35 19 49 -21 14 -58 10
-64 -6z"/>
<path d="M2107 1592 c-34 -38 -15 -95 35 -107 21 -5 33 -1 52 19 30 29 33 52
10 84 -19 28 -74 30 -97 4z"/>
<path d="M5810 1540 c0 -58 -3 -71 -19 -80 -29 -15 -51 12 -51 65 0 56 -8 75
-30 75 -28 0 -31 -11 -21 -91 8 -57 15 -78 31 -91 32 -26 83 -23 117 6 27 23
28 28 25 97 -3 82 -6 89 -33 89 -17 0 -19 -7 -19 -70z"/>
<path d="M8286 1591 c-24 -26 -17 -70 15 -94 24 -17 30 -18 55 -6 64 31 50
119 -20 119 -20 0 -40 -8 -50 -19z"/>
<path d="M4923 1588 c-69 -18 -95 -110 -47 -167 66 -78 185 -34 188 71 1 66
-70 115 -141 96z m69 -65 c22 -19 24 -56 4 -72 -8 -7 -30 -11 -48 -9 -29 3
-33 7 -36 36 -6 57 39 82 80 45z"/>
<path d="M5452 1572 c-9 -6 -10 -31 -6 -100 7 -89 8 -91 33 -94 40 -5 102 8
112 23 15 24 10 77 -7 87 -13 7 -14 13 -5 30 14 27 14 28 -5 46 -16 17 -99 22
-122 8z m88 -52 c0 -5 -9 -10 -20 -10 -11 0 -20 5 -20 10 0 6 9 10 20 10 11 0
20 -4 20 -10z m15 -70 c7 -11 -42 -37 -51 -27 -4 3 -4 13 -1 22 7 17 42 21 52
5z"/>
<path d="M5172 1558 c-8 -8 -12 -45 -12 -100 0 -70 3 -90 15 -94 20 -8 45 14
45 39 0 19 2 19 28 -6 43 -41 106 -30 68 12 -12 13 -14 29 -10 68 6 43 3 54
-15 72 -24 24 -98 30 -119 9z m93 -58 c9 -15 -14 -40 -36 -40 -14 0 -19 7 -19
25 0 20 5 25 24 25 14 0 28 -5 31 -10z"/>
<path d="M4344 1525 c-14 -35 41 -60 66 -30 10 12 10 18 0 30 -16 19 -59 19
-66 0z"/>
<path d="M7910 1151 c-8 -16 -1 -31 38 -83 42 -56 47 -70 52 -128 4 -53 8 -65
24 -68 29 -6 40 14 37 69 -2 47 2 58 45 120 47 69 52 99 15 99 -10 0 -35 -19
-56 -41 l-37 -42 -40 47 c-43 50 -62 57 -78 27z"/>
<path d="M2523 1145 c-11 -8 -13 -39 -11 -140 l3 -130 105 0 105 0 3 28 c4 30
5 29 -83 31 -54 1 -60 3 -63 23 -3 19 2 22 39 25 79 6 77 68 -2 68 -31 0 -39
4 -39 19 0 15 11 19 61 25 33 3 65 8 70 12 11 6 12 44 2 44 -108 5 -179 3
-190 -5z"/>
<path d="M2884 1147 c-2 -7 -3 -71 -2 -143 l3 -129 30 0 c30 0 30 1 35 65 l5
65 49 -68 c35 -47 56 -67 72 -67 30 0 34 16 34 138 0 132 -5 152 -36 152 -26
0 -32 -15 -36 -95 l-3 -49 -53 72 c-52 70 -86 90 -98 59z"/>
<path d="M3323 1144 c-38 -19 -69 -64 -78 -114 -8 -47 28 -118 74 -144 43 -25
109 -25 152 0 39 23 70 95 52 123 -14 22 -105 27 -122 8 -16 -21 -3 -47 24
-47 34 0 39 -15 9 -29 -40 -18 -63 -13 -96 19 -25 26 -29 36 -24 62 12 62 66
88 112 53 10 -8 32 -15 47 -15 25 0 28 3 25 27 -7 60 -105 91 -175 57z"/>
<path d="M3695 1138 c-3 -13 -4 -77 -3 -143 l3 -120 115 0 115 0 0 25 c0 24
-2 25 -82 28 l-83 3 0 89 c0 49 -4 100 -10 114 -12 33 -47 35 -55 4z"/>
<path d="M4102 1148 c-8 -8 -12 -52 -12 -134 0 -128 7 -150 47 -142 16 3 18
17 21 123 1 66 0 130 -3 143 -6 24 -34 29 -53 10z"/>
<path d="M4361 1146 c-26 -14 -50 -51 -51 -77 0 -29 36 -63 86 -79 37 -11 49
-20 49 -35 0 -25 -37 -32 -65 -12 -29 20 -60 10 -60 -19 0 -33 36 -54 93 -54
40 0 53 5 78 29 54 55 32 117 -51 142 -49 15 -71 36 -49 50 20 12 23 12 48
-10 24 -21 56 -18 65 6 4 8 -6 27 -23 44 -33 32 -78 38 -120 15z"/>
<path d="M4685 1148 c-3 -8 -4 -72 -3 -144 3 -124 4 -129 25 -132 26 -4 47 29
40 64 -4 22 -1 24 39 24 l43 0 3 -42 c3 -38 6 -43 28 -43 l25 0 0 140 0 140
-25 0 c-23 0 -25 -4 -28 -55 -4 -66 -16 -82 -56 -78 -31 3 -31 4 -36 68 -4 58
-7 65 -28 68 -12 2 -24 -3 -27 -10z"/>
<path d="M5301 1143 c-18 -9 -44 -34 -58 -55 -21 -32 -25 -46 -21 -88 5 -54
30 -90 80 -116 50 -26 158 -11 158 22 0 24 -31 45 -54 37 -59 -21 -110 5 -122
62 -12 64 53 104 120 74 20 -9 29 -9 41 1 23 19 18 38 -17 60 -40 24 -82 25
-127 3z"/>
<path d="M5661 1138 c-54 -36 -74 -71 -75 -125 -3 -153 206 -199 273 -59 26
53 26 67 1 116 -41 80 -135 112 -199 68z m124 -73 c50 -49 20 -129 -48 -129
-59 0 -96 49 -76 102 21 57 82 70 124 27z"/>
<path d="M6006 1145 c-3 -9 -6 -70 -6 -135 0 -94 3 -122 16 -134 11 -12 20
-13 34 -6 15 8 20 24 22 68 l3 57 33 -57 c19 -32 37 -58 41 -58 10 0 41 34 41
46 0 5 9 20 20 34 l20 25 0 -32 c0 -49 17 -83 40 -83 29 0 37 30 39 147 3 166
-28 187 -106 73 -26 -38 -50 -69 -53 -69 -3 0 -23 30 -45 67 -31 52 -46 68
-66 70 -17 2 -29 -3 -33 -13z"/>
<path d="M6434 1148 c-14 -21 -18 -233 -5 -257 13 -23 45 -28 58 -8 4 6 10 35
13 62 l5 50 33 -57 c19 -32 37 -58 42 -58 5 0 19 19 32 42 31 57 46 59 50 7 4
-49 27 -71 52 -49 14 11 16 33 14 144 l-3 131 -25 0 c-18 0 -34 -14 -66 -60
-23 -33 -48 -60 -54 -60 -6 0 -31 27 -54 60 -42 60 -76 79 -92 53z"/>
<path d="M6854 1136 c-3 -14 -4 -64 -3 -110 3 -66 8 -91 25 -113 43 -58 140
-62 184 -6 18 24 20 38 18 137 -3 111 -3 111 -28 111 -25 0 -25 -1 -30 -98 -4
-83 -8 -101 -24 -113 -52 -37 -74 -3 -78 116 l-3 95 -27 3 c-22 3 -29 -2 -34
-22z"/>
<path d="M7202 1148 c-8 -8 -12 -50 -12 -134 0 -99 3 -124 16 -135 11 -9 20
-10 32 -2 15 9 17 30 17 144 0 127 -1 134 -20 137 -11 1 -26 -3 -33 -10z"/>
<path d="M7385 1138 c-3 -13 -4 -77 -3 -143 l3 -120 30 0 30 0 0 140 0 140
-27 3 c-22 3 -29 -2 -33 -20z"/>
<path d="M7564 1145 c-12 -30 4 -45 46 -45 l40 0 0 -110 c0 -93 3 -112 16
-117 38 -14 49 9 54 118 l5 104 43 3 c40 3 43 5 40 30 l-3 27 -118 3 c-98 2
-118 0 -123 -13z"/>
</g>
</svg>
